<?xml version="1.0" encoding="utf-8"?>
<svg version="1.1" id="Слой_1" xmlns="http://www.w3.org/2000/svg" xmlns:xlink="http://www.w3.org/1999/xlink" x="0px" y="0px"
	 viewBox="0 0 185 37" xml:space="preserve" fill="#4f4f4f">
<path class="st0" d="M6,29H1.1V2.2H6v8.5c0.5-0.4,1.2-0.7,1.8-0.9c0.6-0.2,1.3-0.3,1.9-0.3c1.1,0,2.3,0.2,3.3,0.7
	c1,0.4,2,1.1,2.7,1.9c0.8,0.8,1.4,1.7,1.8,2.7c0.4,1,0.7,2.2,0.7,3.3v11h-4.9V18l0,0c0-0.5-0.1-1-0.3-1.4c-0.4-0.9-1.1-1.6-2-2
	c-0.4-0.2-0.9-0.3-1.4-0.3c-0.5,0-1,0.1-1.4,0.3c-0.9,0.4-1.6,1.1-2,2C6,17,6,17.5,6,18V29z"/>
<path class="st0" d="M27.5,4.6c0,0.4-0.1,0.9-0.3,1.3c-0.2,0.4-0.4,0.7-0.7,1c-0.3,0.3-0.6,0.5-1,0.7c-0.8,0.3-1.7,0.3-2.6,0
	c-0.4-0.2-0.7-0.4-1-0.7c-0.3-0.3-0.5-0.6-0.7-1c-0.3-0.8-0.3-1.7,0-2.5c0.3-0.8,1-1.4,1.7-1.7c0.8-0.3,1.7-0.3,2.6,0
	c0.4,0.2,0.7,0.4,1,0.7c0.3,0.3,0.5,0.6,0.7,1C27.5,3.7,27.5,4.2,27.5,4.6z M26.7,29h-4.9V9.8h4.9L26.7,29z"/>
<path class="st0" d="M49,26.6c0,1.3-0.3,2.6-0.8,3.8c-0.5,1.2-1.2,2.2-2.1,3.1c-0.9,0.9-2,1.6-3.1,2.1c-1.2,0.5-2.5,0.8-3.8,0.8
	h-2.5v-4.9h2.4c0.7,0,1.4-0.1,2-0.3c1-0.3,1.8-1.1,2.3-2c0.2-0.4,0.4-0.9,0.5-1.4c-0.2,0.3-0.5,0.6-0.8,0.8
	c-0.4,0.2-0.8,0.4-1.2,0.5c-0.4,0.1-0.9,0.2-1.4,0.3c-0.5,0-0.9,0.1-1.3,0.1c-1.3,0-2.6-0.2-3.8-0.7c-2.4-0.9-4.3-2.8-5.2-5.2
	c-0.5-1.4-0.8-2.8-0.8-4.3c0-1.4,0.3-2.7,0.8-4c0.5-1.2,1.2-2.2,2-3.2c0.9-0.9,2-1.6,3.1-2.1c1.2-0.5,2.5-0.8,3.8-0.8
	c0.6,0,1.2,0.1,1.8,0.2c0.6,0.2,1.2,0.4,1.8,0.6c0.6,0.3,1.1,0.6,1.6,1c0.5,0.4,1,0.8,1.5,1.2l1.9-2.3H49V26.6z M44,19.2
	c0-0.7-0.1-1.3-0.4-1.9c-0.2-0.6-0.6-1.2-1-1.7c-0.4-0.5-1-0.9-1.5-1.2c-0.6-0.3-1.2-0.5-1.9-0.5c-0.6,0-1.3,0.1-1.9,0.3
	c-0.6,0.2-1.1,0.6-1.5,1c-0.4,0.5-0.8,1-1,1.6c-0.3,0.7-0.4,1.5-0.4,2.2c0,0.7,0.1,1.5,0.4,2.2c0.2,0.6,0.6,1.2,1,1.6
	c0.4,0.4,1,0.8,1.5,1c0.6,0.2,1.2,0.4,1.9,0.4c0.7,0,1.3-0.1,1.9-0.4c0.6-0.3,1.1-0.7,1.5-1.2c0.4-0.5,0.8-1.1,1-1.7
	C43.9,20.6,44,19.9,44,19.2z"/>
<path class="st0" d="M57.6,29h-4.9V2.2h4.9v8.5c0.5-0.4,1.2-0.7,1.8-0.9c0.6-0.2,1.3-0.3,1.9-0.3c1.1,0,2.3,0.2,3.3,0.7
	c1,0.4,1.9,1.1,2.7,1.9c0.8,0.8,1.4,1.7,1.8,2.7c0.4,1,0.7,2.1,0.7,3.3v11h-4.9V18l0,0c0-0.5-0.1-1-0.3-1.4c-0.4-0.9-1.1-1.6-2-2
	c-0.4-0.2-0.9-0.3-1.4-0.3c-0.5,0-1,0.1-1.5,0.3c-0.9,0.4-1.6,1.1-2,2c-0.2,0.5-0.2,0.9-0.2,1.4V29z"/>
<path class="st0" d="M83.8,29H72.7v-4.9h11.2c0.7,0,1.2-0.5,1.2-1.2l0,0c0-0.3-0.1-0.6-0.4-0.7c-0.3-0.1-0.6-0.2-0.9-0.2h-5.1
	c-0.8,0-1.6-0.2-2.4-0.5c-1.5-0.6-2.6-1.8-3.2-3.3c-0.6-1.5-0.6-3.2,0-4.8c0.6-1.5,1.8-2.6,3.2-3.2c0.8-0.3,1.6-0.5,2.4-0.5h9.9v4.9
	h-9.9c-0.7,0-1.2,0.5-1.2,1.2v0c0,0.3,0.1,0.7,0.4,0.9c0.2,0.2,0.5,0.4,0.9,0.4h5.1c0.8,0,1.6,0.1,2.4,0.4c0.7,0.3,1.4,0.7,1.9,1.2
	c0.6,0.5,1,1.1,1.3,1.8c0.3,0.7,0.5,1.5,0.5,2.3c0,0.8-0.2,1.6-0.5,2.4c-0.3,0.7-0.8,1.4-1.3,1.9c-0.6,0.6-1.2,1-1.9,1.3
	C85.5,28.9,84.7,29,83.8,29z"/>
<path class="st0" d="M109.3,13.6l-3.6,3.6c-0.2-0.5-0.4-0.9-0.7-1.4c-0.3-0.4-0.6-0.7-1-1c-0.4-0.3-0.8-0.5-1.3-0.6
	c-0.5-0.1-0.9-0.2-1.4-0.2c-0.7,0-1.3,0.1-1.9,0.4c-0.6,0.3-1.1,0.7-1.5,1.2c-0.4,0.5-0.8,1.1-1,1.8c-0.3,0.7-0.4,1.5-0.4,2.3
	c0,0.6,0.1,1.3,0.4,1.9c0.2,0.6,0.6,1.1,1,1.5c0.4,0.4,1,0.8,1.5,1c1,0.4,2.2,0.5,3.3,0.2c0.4-0.1,0.9-0.3,1.2-0.6
	c0.4-0.2,0.7-0.6,1-0.9c0.3-0.4,0.6-0.7,0.7-1.2l3.6,3.6c-0.4,0.7-1,1.3-1.6,1.8c-0.6,0.5-1.2,1-1.9,1.3c-0.7,0.4-1.4,0.6-2.2,0.8
	c-0.8,0.2-1.6,0.3-2.3,0.3c-1.3,0-2.6-0.2-3.8-0.8c-2.3-1-4.2-2.8-5.2-5.2c-0.5-1.2-0.8-2.5-0.8-3.8c0-1.4,0.3-2.8,0.8-4.1
	c0.5-1.2,1.2-2.4,2.1-3.3c0.9-0.9,1.9-1.7,3.1-2.3c1.2-0.5,2.5-0.8,3.8-0.8c0.8,0,1.6,0.1,2.4,0.3c1.6,0.4,3,1.2,4.1,2.3
	C108.4,12.3,108.9,12.9,109.3,13.6z"/>
<path class="st0" d="M116.6,29h-4.9V9.8h1.2l1.6,2.3c1.6-1.4,3.7-2.2,5.8-2.2h4.3v4.9h-4.3c-0.5,0-1,0.1-1.4,0.3
	c-0.9,0.4-1.6,1.1-2,2c-0.2,0.5-0.3,1-0.3,1.5L116.6,29z"/>
<path class="st0" d="M134.1,24.3c0.2,0.1,0.4,0.1,0.6,0.1h0.6c0.5,0,0.9-0.1,1.4-0.2c0.4-0.1,0.9-0.3,1.3-0.6
	c0.8-0.5,1.4-1.2,1.8-2.1l3.6,3.6c-0.4,0.7-1,1.3-1.6,1.8c-0.6,0.5-1.2,1-1.9,1.3c-0.7,0.4-1.4,0.6-2.2,0.8
	c-0.8,0.2-1.6,0.3-2.3,0.3c-2.6,0-5.1-1-6.9-2.9c-0.9-0.9-1.6-2-2.1-3.2c-0.5-1.3-0.8-2.7-0.8-4.1c0-1.4,0.2-2.8,0.8-4.2
	c0.9-2.4,2.8-4.3,5.2-5.3c1.2-0.5,2.5-0.7,3.8-0.7c0.8,0,1.6,0.1,2.4,0.3c1.5,0.4,2.9,1.1,4.1,2.1c0.6,0.5,1.1,1.1,1.6,1.8
	L134.1,24.3z M136.7,14.2c-0.2-0.1-0.4-0.1-0.7-0.2c-0.2,0-0.5,0-0.7,0c-0.6,0-1.3,0.1-1.9,0.4c-0.6,0.2-1.1,0.6-1.5,1
	c-0.4,0.5-0.8,1-1,1.6c-0.3,0.7-0.4,1.4-0.4,2.2c0,0.2,0,0.4,0,0.6c0,0.2,0,0.5,0.1,0.7c0,0.2,0.1,0.5,0.1,0.7
	c0.1,0.2,0.1,0.4,0.2,0.6L136.7,14.2z"/>
<path class="st0" d="M153.3,24.3c0.2,0.1,0.4,0.1,0.6,0.1h0.6c0.5,0,0.9-0.1,1.4-0.2c0.4-0.1,0.9-0.3,1.2-0.6c0.4-0.2,0.7-0.6,1-0.9
	c0.3-0.4,0.6-0.7,0.7-1.2l3.6,3.6c-0.4,0.7-0.9,1.3-1.5,1.8c-0.6,0.5-1.2,1-1.9,1.3c-0.7,0.4-1.4,0.6-2.2,0.8
	c-0.8,0.2-1.6,0.3-2.3,0.3c-2.6,0-5.1-1-6.9-2.9c-0.9-0.9-1.6-2-2.1-3.2c-0.5-1.3-0.8-2.7-0.8-4.1c0-1.4,0.2-2.8,0.8-4.2
	c0.9-2.4,2.8-4.3,5.2-5.3c1.2-0.5,2.5-0.7,3.8-0.7c0.8,0,1.6,0.1,2.4,0.3c1.5,0.4,2.9,1.1,4.1,2.1c0.6,0.5,1.1,1.1,1.6,1.8
	L153.3,24.3z M155.8,14.2c-0.2-0.1-0.4-0.1-0.7-0.2c-0.2,0-0.5,0-0.7,0c-0.6,0-1.3,0.1-1.9,0.4c-0.6,0.2-1.1,0.6-1.5,1
	c-0.4,0.5-0.8,1-1,1.6c-0.3,0.7-0.4,1.4-0.4,2.2c0,0.2,0,0.4,0,0.6c0,0.2,0,0.5,0.1,0.7c0,0.2,0.1,0.5,0.1,0.7
	c0.1,0.2,0.1,0.4,0.2,0.6L155.8,14.2z"/>
<path class="st0" d="M169.8,29h-4.9V9.8h1.2l1.6,1.9c1.6-1.4,3.7-2.2,5.8-2.2c1.1,0,2.3,0.2,3.3,0.7c1,0.4,2,1.1,2.7,1.9
	c0.8,0.8,1.4,1.7,1.8,2.7c0.4,1,0.6,2.1,0.6,3.3v11h-4.9V18c0-0.5-0.1-1-0.3-1.4c-0.4-0.9-1.1-1.6-2-2c-0.4-0.2-0.9-0.3-1.4-0.3
	c-0.5,0-1,0.1-1.4,0.3c-0.9,0.4-1.6,1.1-2,2c-0.2,0.4-0.3,0.9-0.3,1.4L169.8,29z"/>
</svg>
